<svg width="100" height="100" viewBox="0 0 100 100" fill="none" xmlns="http://www.w3.org/2000/svg">
<path d="M68.3004 25.9638C66.9279 24.9172 66.6642 22.9563 67.7109 21.5839C68.7571 20.2116 70.7184 19.9476 72.0904 20.9942C81.0759 27.8469 86.4584 38.4804 86.4584 50.0001C86.4584 69.1264 71.7309 84.8127 52.9975 86.3368L56.1238 89.4572L56.4263 89.8077C57.3338 91.031 57.2329 92.7672 56.1238 93.8764C54.9034 95.0968 52.9246 95.0968 51.7042 93.8764L43.3709 85.5431L43.0684 85.1926C42.1604 83.9693 42.2613 82.2331 43.3709 81.1239L44.7584 79.7364C46.4608 80.0347 48.2129 80.1901 50.0009 80.1901C51.1246 80.1901 52.2342 80.1289 53.3263 80.0089L53.3054 80.0297C68.4342 78.3835 80.2084 65.5668 80.2084 50.0001C80.2084 40.451 75.7517 31.6466 68.3004 25.9638ZM43.8763 10.5432C42.6559 9.32282 42.6559 7.34415 43.8763 6.12378C45.0967 4.9034 47.0754 4.9034 48.2958 6.12378L56.6292 14.4571C57.8496 15.6775 57.8496 17.6562 56.6292 18.8765L55.2404 20.2652C53.5388 19.9674 51.7879 19.8122 50.0009 19.8122C48.8742 19.8122 47.7621 19.8739 46.6675 19.9942L46.6904 19.971C31.5639 21.6194 19.7917 34.435 19.7917 50.0001C19.7917 59.1343 23.8664 67.5956 30.7754 73.3027C32.1061 74.4018 32.2937 76.3718 31.1946 77.7022C30.0954 79.0331 28.1257 79.2206 26.7951 78.1214C18.4636 71.2393 13.5417 61.0189 13.5417 50.0001C13.5417 30.8755 28.2671 15.1902 46.9984 13.6636L43.8763 10.5432ZM62.6263 45.9597C63.8467 44.7393 63.8467 42.761 62.6263 41.5404C61.4059 40.3201 59.4275 40.3201 58.2071 41.5404L45.8334 53.9139L41.7929 49.8739C40.5727 48.6535 38.594 48.6535 37.3736 49.8739C36.1533 51.0943 36.1533 53.0727 37.3736 54.2931L43.6238 60.5431C44.8442 61.7635 46.8225 61.7635 48.0429 60.5431L62.6263 45.9597ZM50 75.0002C63.8071 75.0002 75 63.8072 75 50.0001C75 36.193 63.8071 25.0002 50 25.0002C36.1929 25.0002 25 36.193 25 50.0001C25 63.8072 36.1929 75.0002 50 75.0002ZM50 68.7501C39.6447 68.7501 31.25 60.3556 31.25 50.0001C31.25 39.6448 39.6447 31.2502 50 31.2502C60.3554 31.2502 68.75 39.6448 68.75 50.0001C68.75 60.3556 60.3554 68.7501 50 68.7501Z" fill="white"/>
</svg>
