<svg width="100" height="100" viewBox="0 0 100 100" fill="none" xmlns="http://www.w3.org/2000/svg">
<path d="M73.9583 12.5C81.4371 12.5 87.5 18.5628 87.5 26.0417V50.0908C85.57 48.8554 83.4729 47.8575 81.25 47.1396V35.4167H18.75V73.9583C18.75 77.9854 22.0146 81.25 26.0417 81.25H47.1396C47.8575 83.4729 48.8554 85.57 50.0908 87.5H26.0417C18.5628 87.5 12.5 81.4371 12.5 73.9583V26.0417C12.5 18.5628 18.5628 12.5 26.0417 12.5H73.9583ZM73.9583 18.75H26.0417C22.0146 18.75 18.75 22.0146 18.75 26.0417V29.1667H81.25V26.0417C81.25 22.0146 77.9854 18.75 73.9583 18.75ZM95.8333 72.9167C95.8333 85.5733 85.5733 95.8333 72.9167 95.8333C60.26 95.8333 50 85.5733 50 72.9167C50 60.26 60.26 50 72.9167 50C85.5733 50 95.8333 60.26 95.8333 72.9167ZM86.89 63.11C86.0763 62.2967 84.7571 62.2967 83.9433 63.11L68.75 78.3038L61.89 71.4433C61.0763 70.63 59.7571 70.63 58.9433 71.4433C58.13 72.2571 58.13 73.5763 58.9433 74.39L67.2767 82.7233C68.0904 83.5367 69.4096 83.5367 70.2233 82.7233L86.89 66.0567C87.7033 65.2429 87.7033 63.9238 86.89 63.11Z" fill="white"/>
</svg>
