<svg width="100" height="100" viewBox="0 0 100 100" fill="none" xmlns="http://www.w3.org/2000/svg">
<path d="M72.9167 50C85.5733 50 95.8333 60.26 95.8333 72.9167C95.8333 85.5733 85.5733 95.8333 72.9167 95.8333C60.26 95.8333 50 85.5733 50 72.9167C50 60.26 60.26 50 72.9167 50ZM62.5992 62.6004C61.7854 63.4142 61.7854 64.7333 62.5992 65.5467L69.9708 72.9208L62.61 80.2813C61.7963 81.095 61.7963 82.4138 62.61 83.2275C63.4238 84.0413 64.7425 84.0413 65.5563 83.2275L72.9167 75.8667L80.2892 83.2367C81.1029 84.0504 82.4217 84.0504 83.2354 83.2367C84.0492 82.4233 84.0492 81.1042 83.2354 80.2904L75.8667 72.9208L83.2471 65.5471C84.0604 64.7333 84.0604 63.4142 83.2471 62.6008C82.4333 61.7871 81.1142 61.7871 80.3008 62.6008L72.9208 69.975L65.5454 62.6004C64.7317 61.7871 63.4129 61.7871 62.5992 62.6004ZM73.9583 12.5C81.4371 12.5 87.5 18.5628 87.5 26.0417L87.505 50.0942C85.5742 48.8575 83.4758 47.8587 81.2517 47.14L81.25 35.4167H18.75V73.9583C18.75 77.9854 22.0146 81.25 26.0417 81.25L47.14 81.2517C47.8587 83.4758 48.8575 85.5742 50.0942 87.505L26.0417 87.5C18.5628 87.5 12.5 81.4371 12.5 73.9583V26.0417C12.5 18.5628 18.5628 12.5 26.0417 12.5H73.9583ZM73.9583 18.75H26.0417C22.0146 18.75 18.75 22.0146 18.75 26.0417V29.1667H81.25V26.0417C81.25 22.0146 77.9854 18.75 73.9583 18.75Z" fill="#212121"/>
</svg>
