<svg width="36" height="36" viewBox="0 0 36 36" fill="none" xmlns="http://www.w3.org/2000/svg">
<path d="M26.25 18C30.8064 18 34.5 21.6936 34.5 26.25C34.5 30.8064 30.8064 34.5 26.25 34.5C21.6936 34.5 18 30.8064 18 26.25C18 21.6936 21.6936 18 26.25 18ZM22.5357 22.5362C22.2428 22.8291 22.2428 23.304 22.5357 23.5968L25.1895 26.2515L22.5396 28.9013C22.2467 29.1942 22.2467 29.669 22.5396 29.9619C22.8326 30.2549 23.3073 30.2549 23.6003 29.9619L26.25 27.312L28.9041 29.9652C29.1971 30.2582 29.6718 30.2582 29.9648 29.9652C30.2577 29.6724 30.2577 29.1975 29.9648 28.9046L27.312 26.2515L29.969 23.597C30.2618 23.304 30.2618 22.8291 29.969 22.5363C29.676 22.2434 29.2011 22.2434 28.9083 22.5363L26.2515 25.191L23.5964 22.5362C23.3034 22.2434 22.8287 22.2434 22.5357 22.5362ZM26.625 4.5C29.3174 4.5 31.5 6.68261 31.5 9.375L31.5018 18.0339C30.8067 17.5887 30.0513 17.2292 29.2506 16.9704L29.25 12.75H6.75V26.625C6.75 28.0748 7.92525 29.25 9.375 29.25L16.9704 29.2506C17.2292 30.0513 17.5887 30.8067 18.0339 31.5018L9.375 31.5C6.68261 31.5 4.5 29.3174 4.5 26.625V9.375C4.5 6.68261 6.68261 4.5 9.375 4.5H26.625ZM26.625 6.75H9.375C7.92525 6.75 6.75 7.92525 6.75 9.375V10.5H29.25V9.375C29.25 7.92525 28.0748 6.75 26.625 6.75Z" fill="#012269"/>
</svg>
