<svg width="100" height="100" viewBox="0 0 100 100" fill="none" xmlns="http://www.w3.org/2000/svg">
<path d="M54.1562 28.125C54.1562 26.3991 55.5554 25 57.2812 25H88.5335C90.2594 25 91.6585 26.3991 91.6585 28.125V59.375C91.6585 61.1008 90.2594 62.5 88.5335 62.5C86.8076 62.5 85.4085 61.1008 85.4085 59.375V35.6703L49.0842 72.0012C48.4979 72.5875 47.7029 72.9167 46.8742 72.9167C46.0454 72.9167 45.2504 72.5875 44.6642 72.0012L9.24834 36.5847C8.02792 35.3643 8.02792 33.3856 9.24834 32.1652C10.4688 30.9449 12.4475 30.9449 13.6679 32.1653L46.8737 65.3721L80.99 31.25H57.2812C55.5554 31.25 54.1562 29.8509 54.1562 28.125Z" fill="white"/>
</svg>
