<svg width="100" height="100" viewBox="0 0 100 100" fill="none" xmlns="http://www.w3.org/2000/svg">
<path d="M58.3333 66.6667C58.3333 64.3654 60.1987 62.5 62.5 62.5H83.3333C85.6346 62.5 87.5 64.3654 87.5 66.6667V83.3333C87.5 85.6346 85.6346 87.5 83.3333 87.5H62.5C60.1987 87.5 58.3333 85.6346 58.3333 83.3333V66.6667ZM95.8333 72.9167C95.8333 71.7662 94.9004 70.8333 93.75 70.8333C92.5996 70.8333 91.6667 71.7662 91.6667 72.9167V85.4167C91.6667 88.8683 88.8683 91.6667 85.4167 91.6667H68.75C67.5996 91.6667 66.6667 92.5996 66.6667 93.75C66.6667 94.9004 67.5996 95.8333 68.75 95.8333H85.4167C91.1696 95.8333 95.8333 91.1696 95.8333 85.4167V72.9167ZM73.0429 13.4153C71.8225 12.1949 69.8442 12.1949 68.6237 13.4153C67.4033 14.6357 67.4033 16.6143 68.6237 17.8347L80.9971 30.2083H60.4167C52.9379 30.2083 46.875 36.2711 46.875 43.75V56.25C46.875 59.6742 44.515 62.5471 41.3327 63.3304C39.7873 55.7246 33.0622 50 25 50C15.7952 50 8.33333 57.4621 8.33333 66.6667C8.33333 75.8712 15.7952 83.3333 25 83.3333C33.1789 83.3333 39.9818 77.4421 41.3965 69.6712C48.0179 68.7854 53.125 63.1142 53.125 56.25V43.75C53.125 39.7229 56.3896 36.4583 60.4167 36.4583H80.9971L68.6237 48.8321C67.4033 50.0525 67.4033 52.0308 68.6237 53.2512C69.8442 54.4717 71.8225 54.4717 73.0429 53.2512L90.7512 35.543C91.9717 34.3227 91.9717 32.344 90.7512 31.1236L73.0429 13.4153ZM14.5833 66.6667C14.5833 60.9137 19.247 56.25 25 56.25C30.753 56.25 35.4167 60.9137 35.4167 66.6667C35.4167 72.4196 30.753 77.0833 25 77.0833C19.247 77.0833 14.5833 72.4196 14.5833 66.6667Z" fill="white"/>
</svg>
