<svg width="100" height="100" viewBox="0 0 100 100" fill="none" xmlns="http://www.w3.org/2000/svg">
<path d="M60.8758 10.2936L60.5558 10.0129C59.3308 9.07729 57.575 9.17088 56.4562 10.2936L56.1767 10.6148C55.2446 11.8441 55.3375 13.6063 56.4562 14.7291L64.6708 22.9658H35.4166L34.4453 22.983C19.9375 23.4963 8.33331 35.4619 8.33331 50.1475C8.33331 57.1912 11.0029 63.6096 15.3821 68.4383L15.6836 68.7279C16.229 69.1937 16.9359 69.475 17.7083 69.475C19.4342 69.475 20.8333 68.0708 20.8333 66.3387C20.8333 65.6171 20.5904 64.9521 20.1822 64.4221L19.3516 63.4608C16.373 59.8446 14.5833 55.2058 14.5833 50.1475C14.5833 38.5998 23.9107 29.2385 35.4166 29.2385H64.0875L56.4562 36.9064L56.1767 37.2276C55.2446 38.457 55.3375 40.2192 56.4562 41.3419C57.6767 42.5667 59.6554 42.5667 60.8758 41.3419L74.1342 28.0355L74.4137 27.7143C75.3458 26.485 75.2525 24.7228 74.1342 23.6L60.8758 10.2936ZM84.2916 31.5462C83.7496 31.0927 83.0525 30.8199 82.2916 30.8199C80.5658 30.8199 79.1666 32.2241 79.1666 33.9562C79.1666 34.7341 79.4487 35.4458 79.9129 35.9884C83.33 39.7129 85.4166 44.6858 85.4166 50.1475C85.4166 61.6954 76.0891 71.0567 64.5833 71.0567H35.6583L43.5975 63.0937L43.9021 62.7387C44.7246 61.6237 44.7162 60.0858 43.8771 58.9792L43.5975 58.6579L43.2437 58.3521C42.1329 57.5271 40.6004 57.5354 39.4979 58.3775L39.1779 58.6579L25.9197 71.9646L25.6148 72.3192C24.7926 73.4342 24.801 74.9725 25.64 76.0787L25.9197 76.4L39.1779 89.7062L39.5284 90.01C40.7518 90.9212 42.4879 90.82 43.5975 89.7062C44.7162 88.5837 44.8092 86.8213 43.8771 85.5921L43.5975 85.2708L35.6833 77.3292H64.5833L65.5546 77.3121C80.0625 76.7987 91.6667 64.8333 91.6667 50.1475C91.6667 43.0917 88.9879 36.6635 84.5954 31.8319L84.2916 31.5462Z" fill="white"/>
</svg>
